<svg id="Capa_1" data-name="Capa 1" xmlns="http://www.w3.org/2000/svg" xmlns:xlink="http://www.w3.org/1999/xlink" viewBox="0 0 1080 1080"><defs><style>.cls-1{fill:#fff;}.cls-2{fill:#0074cd;}.cls-3{fill:#f50d52;}.cls-4{fill:url(#Degradado_sin_nombre_2);}</style><linearGradient id="Degradado_sin_nombre_2" x1="19.46" y1="1088.24" x2="19.5" y2="1088.25" gradientTransform="matrix(33.76, 0, 0, -63.42, 211.08, 69040.55)" gradientUnits="userSpaceOnUse"><stop offset="0" stop-color="#0074cd"/><stop offset="0.72" stop-color="#056ec8"/><stop offset="1" stop-color="#096ac5"/></linearGradient></defs><g id="Grupo_122" data-name="Grupo 122" transform="rotate(-45 540 540)"><g id="Grupo_121" data-name="Grupo 121"><g id="Grupo_117" data-name="Grupo 117"><g id="Trazado_39" data-name="Trazado 39"><path id="Trazado_50" data-name="Trazado 50" class="cls-1" d="M693.66,680.53a13.23,13.23,0,0,0,1.29-3.75A17.5,17.5,0,0,0,693.66,680.53Z"/></g><g id="Trazado_40" data-name="Trazado 40"><path id="Trazado_51" data-name="Trazado 51" class="cls-1" d="M405,712.78c0,2.48,0,5,0,7.46A19.7,19.7,0,0,0,405,712.78Z"/></g><g id="Trazado_41" data-name="Trazado 41"><path id="Trazado_52" data-name="Trazado 52" class="cls-1" d="M925.39,672.24c-4-4-9.33-6.1-15.93-6.1a59.35,59.35,0,0,0-6.92.53,36.7,36.7,0,0,1-3.7.33h-.08c-1.41,0-2.65,0-3.75,0h0c-4.49,0-12.51,0-18,6.33a67.07,67.07,0,0,0-32.85-8.44,64.94,64.94,0,0,0-46.18,18.68,84.49,84.49,0,0,0-8.83,10.24c0-3.33.06-6.48.15-9.53a18.51,18.51,0,0,0-4.91-14,16.61,16.61,0,0,0-4.93-3.49,25.42,25.42,0,0,0,14.19-11.13c24.94-39.1,41.72-70.48,54.36-101.72,12.72-31.46,19.95-62.69,21.49-92.8a242.18,242.18,0,0,0-14.21-94.83c-22.64-62.88-62.85-111-119.55-142.91-35.17-19.81-74.34-29.86-116.46-29.86a289.06,289.06,0,0,0-34.3,2.1A228,228,0,0,0,477.51,237c-29.48,21.08-53.86,49-76.69,87.72l-.58,1c-4.72,8-10.08,17.1-13.19,28.66a13.51,13.51,0,0,0-.18,6.29c-23.93,9.72-50.16,19.81-79.9,30.76-30.85,11.37-62.06,23.07-92.78,34.76-20.87,7.94-29.34,21.11-28.33,44,.38,8.47.7,16.1.7,23.62,0,5.72-.08,11.59-.17,17.27-.19,14.17-.38,28.83.59,43.52,1.8,26.81,16.66,43.85,43,49.26a26.47,26.47,0,0,0,5.61.6h1a50.27,50.27,0,0,1-4.13,6c-2.9,0-6,0-9.46,0-4.31,0-8.61,0-12.92,0l-5.48,0c-12.65,0-16.57,9.24-16.88,14.71a15.16,15.16,0,0,0,4,11.31,16.26,16.26,0,0,0,12.16,5H204c3,.08,5.7.12,8.26.12,61.27,0,146.31-.05,230-.09a15.31,15.31,0,0,0,3.29,8.38c1.95,4.8,3.56,8.44,6,11.53a20.3,20.3,0,0,0,15.53,7.74,66.31,66.31,0,0,0-7.65,3.42s0,0-.06,0a18.09,18.09,0,0,0-13.95-5.66c-.49,0-1,0-1.55,0a3,3,0,0,0-.31,0c-2.5.19-5,.28-7.52.28-2.67,0-5.37-.1-8-.32-1.12-.11-2.17-.17-3.21-.17a19.33,19.33,0,0,0-14.18,5.44c-5.74,5.76-5.7,13.67-5.69,16.64q.07,11.91.09,23.9a78.7,78.7,0,0,0-2.53-9.65c-.28-.95-.6-2-.92-3.08a15.76,15.76,0,0,0-.63-1.66,34.69,34.69,0,0,0-2.91-5.23c-9.95-17.66-30.64-28.18-55.51-28.18-17.85,0-35,5.66-45.88,15.15-12.34,10.74-18.34,25.77-16.45,41.23A45.21,45.21,0,0,0,296.63,751h-1.15c-.27,0-.53,0-.79,0-7.39,0-11.57,3.28-13.78,6a15.12,15.12,0,0,0-1.71,2.62,18.69,18.69,0,0,1-1.65,5.29,20.15,20.15,0,0,0,.32,6.88,54,54,0,0,0,12.73,25.94c.07.07.12.14.19.2,12.74,13.75,33.27,22,54.94,22,14.24,0,27.38-3.53,38-10.2a49.24,49.24,0,0,0,21.35-28.3v1.43c0,18.74,0,38.1,0,57.15,0,7.31,0,23,0,23a13.61,13.61,0,0,0,13.64,13.65h31.46A13.63,13.63,0,0,0,463.86,863V814a66.89,66.89,0,0,0,70.8-10.5.39.39,0,0,1,.1-.08,73.57,73.57,0,0,0,19.29-27.72q.16.41.36.81a74.82,74.82,0,0,0,12.05,18.81,13.24,13.24,0,0,0-5.09-1,13.64,13.64,0,0,0-11.14,21.52c1.44,2,2.57,3.49,3.58,4.78,1.18,1.56,2,2.66,3.13,4.37.1.16.21.3.3.45q4.44,6.36,8.85,12.73c7.45,10.76,15.14,21.88,23,32.7,7.2,10,17.82,15.68,29.15,15.68a35.41,35.41,0,0,0,26.92-12.87,236.45,236.45,0,0,0,17.24-23.43c1.33-2,2.67-4,4-5.93.63-.92,1.36-1.92,2.14-3a60.87,60.87,0,0,0,8.65-14.62,13.65,13.65,0,0,0-12.11-18.61,69.75,69.75,0,0,0,26.19-31.15,24.41,24.41,0,0,0,1.91-6.19q0,13.89,0,27.71a19,19,0,0,0,5.21,14,18.23,18.23,0,0,0,13.39,5.15h.68c3.16-.08,6.26-.15,9.28-.15s5.65.07,8,.22c.69,0,1.36.07,2,.07a19,19,0,0,0,14.13-5.44c5.48-5.59,5.35-12.88,5.29-15.26-.34-17.06-.24-34.2-.09-50.18.08-9.15,1.17-15.21,3.23-18,1.73-2.33,6.08-3.51,12.93-3.51.84,0,1.74,0,2.65,0h.7a15.69,15.69,0,0,0,1.66.07,18.47,18.47,0,0,0,3.48-.32q-3.48,19.8,2.85,43.43c8.29,31,34.53,51,66.83,51h1.39a62,62,0,0,0,29.43-7.76,18,18,0,0,0,2.45,2.17,22.6,22.6,0,0,0,13.76,4.2,55.33,55.33,0,0,0,5.76-.38c1.17-.12,2.27-.23,3-.23h.2c.67,0,1.38.05,2.13.05s1.62,0,2.44,0c.56,0,1.12,0,1.68,0a7.47,7.47,0,0,1,1,0,28.17,28.17,0,0,0,2.87.15,18.62,18.62,0,0,0,13.65-5.33c5.59-5.63,5.52-13.28,5.51-15.79-.14-18.77-.14-37.87-.14-56.36,0-13.53,0-27.53,0-41.3,0-.9.18-2.38.34-3.81C931.47,689.32,932.62,679.59,925.39,672.24Zm-535.5,60.91a17.42,17.42,0,0,0,12.36-6.67,15.14,15.14,0,0,0,2.8-6.19q0,17.85,0,35.62a44.86,44.86,0,0,0-15.2-22.76Zm15.16-12.91c0-2.5,0-5,0-7.46a19.7,19.7,0,0,1,0,7.46ZM501,740.81c0,.48,0,.94,0,1.42,0,11.41-5.79,20.39-14.17,21.83a27.67,27.67,0,0,1-4.63.41c-11.73,0-16.17-8.36-17.84-15.37-2.57-10.87,1-21.92,8.48-26.31a1.64,1.64,0,0,0,.22-.14A18.37,18.37,0,0,1,501,738.11v.38C501,739.16,501,740,501,740.81Zm53.3-31.93c-.44-1.12-.91-2.23-1.4-3.33a72.61,72.61,0,0,0-5.23-9.56,16,16,0,0,0,13.43.07,77.46,77.46,0,0,0-6.8,12.82Zm69.93-194c-.81,0-1.6,0-2.4,0h-.18a75.32,75.32,0,0,1-52-24.12c-13.21-14.2-20.11-32.14-19.43-50.51,0-.3,0-.6,0-.9-.54-18.22,6.92-36.68,20.46-50.63A75,75,0,0,1,624,365.83h.34a74.18,74.18,0,0,1,53,22.43,75.25,75.25,0,0,1,21.57,53.42c-.68,39.69-34.9,73.22-74.71,73.22Zm69,249.94a14.56,14.56,0,0,0-1.43-4.21,14.06,14.06,0,0,0,1.44-1.55C693.19,761,693.19,762.92,693.18,764.84Zm.48-84.31a22.74,22.74,0,0,0-.57,5.45q0,13.1.06,26.26a74.42,74.42,0,0,0-15.23-24.81,13.47,13.47,0,0,0,3.63.5,13.61,13.61,0,0,0,6.19-1.49,13.47,13.47,0,0,0,5.92-5.91,17.5,17.5,0,0,1,1.29-3.75A13.23,13.23,0,0,1,693.66,680.53Zm4.61-8.51a16.64,16.64,0,0,0-3.32,4.73,9.63,9.63,0,0,0,.22-1.77c.1-1.91.14-3.83.14-5.76,2.17,0,4.36,0,6.54,0A16.53,16.53,0,0,0,698.27,672Zm48.38.64a17,17,0,0,0-3.81-3.15c3.84-.06,7.42-.14,10.87-.26A58.82,58.82,0,0,0,746.65,672.66ZM860,763.16a19.83,19.83,0,0,1-7.79,1.82c-4.2,0-8.22-1.86-12.28-5.68-5.28-4.95-8.2-18.47-4.1-28.56a18.29,18.29,0,0,1,16.71-10.9h.76l.13,0c16.63.54,18.21,19,18.27,25.31-.9,13.32-9,16.82-11.7,18Z"/></g><g id="Trazado_43" data-name="Trazado 43"><path id="Trazado_53" data-name="Trazado 53" class="cls-1" d="M405,712.78c0,2.48,0,5,0,7.46A19.7,19.7,0,0,0,405,712.78ZM277.55,764.87a18.69,18.69,0,0,0,1.65-5.29,15.61,15.61,0,0,0-1.65,5.29Z"/></g><g id="Trazado_44" data-name="Trazado 44"><path id="Trazado_54" data-name="Trazado 54" class="cls-1" d="M1029.87,706.53a18.26,18.26,0,0,1-4.81,13.83,17.47,17.47,0,0,1-13,5.15c-.46,0-.94,0-1.43,0-1.1-.07-2.18-.09-3.2-.09-4.19,0-9.71.53-12.15,3-1.74,1.78-3.73,6.41-3.39,18.31.29,9.71.22,19.47.17,28.91-.06,7.2-.1,14.63,0,21.86,0,2.3.14,9.31-5.21,14.74A18.76,18.76,0,0,1,973,817.56c-.3,0-.6,0-.92,0-2.21-.07-4.52-.09-6.88-.09-3.78,0-7.75.08-12.11.26l-1.2,0a18.37,18.37,0,0,1-13.57-5.18c-3.48-3.5-5.24-8.26-5.21-14.15.16-37.32.16-75.16,0-112.47,0-5.81,1.71-10.52,5.16-14a18.31,18.31,0,0,1,13.54-5.13c.45,0,.93,0,1.42,0,3.71.15,6.94.23,9.88.23s5.5-.07,8-.22c.62,0,1.23-.05,1.8-.05,7.48,0,12,3.08,14.43,5.74a57.52,57.52,0,0,1,16.81-6.31,40.64,40.64,0,0,1,8.43-1.15,16.56,16.56,0,0,1,12.08,4.77c5.22,5.24,5.2,12.15,5.18,17.21,0,1.78,0,3.55,0,5.33C1029.76,697.3,1029.72,701.92,1029.87,706.53Z"/></g><g id="Trazado_45" data-name="Trazado 45"><path id="Trazado_55" data-name="Trazado 55" class="cls-1" d="M693.66,680.53a13.23,13.23,0,0,0,1.29-3.75A17.5,17.5,0,0,0,693.66,680.53Z"/></g></g><g id="Grupo_118" data-name="Grupo 118"><g id="Trazado_48" data-name="Trazado 48"><path id="Trazado_56" data-name="Trazado 56" class="cls-1" d="M277.55,764.87a18.69,18.69,0,0,0,1.65-5.29A15.61,15.61,0,0,0,277.55,764.87Z"/><path id="Trazado_57" data-name="Trazado 57" class="cls-1" d="M260.36,683.08c-17.88-22.79-42.92-34.33-74.42-34.33h-1.63c-29.47.39-53.06,10.48-70.25,30L86.25,653.12a16.71,16.71,0,0,0-11.54-4.87c-5.57,0-12.84,3.33-15,12.74q-3.11,13.57-6.13,27.11-1.49,6.54-3,13.09a16.72,16.72,0,0,0,2.94,14.41,14.93,14.93,0,0,0,9.9,5.49,99,99,0,0,0,26.69,34.07c2,30.2,13.47,53.83,34,70.2,17.89,14.23,38.13,21.46,60.12,21.46a117.19,117.19,0,0,0,36-6c23.74-7.67,41.73-24.55,52-48.82,1.07-2.54,4.32-10.24-.54-17.58a18.48,18.48,0,0,0-1.33-1.73,18.49,18.49,0,0,0,7.16-7.81,15.61,15.61,0,0,1,1.65-5.29,16.21,16.21,0,0,0,.22-1.74C281.87,726.52,275.81,702.78,260.36,683.08Zm-72.64,107.2c-.71,0-1.41.06-2.09.06a33.53,33.53,0,0,1-22.08-7.79,272.25,272.25,0,0,0,27.24,1.37c5.1,0,10.22-.14,15.42-.41-4.68,4.2-10.72,6.38-18.49,6.77Zm-.3-63.69c-.77,0-1.52,0-2.28,0h-.2A154.58,154.58,0,0,1,156.11,723c5.54-11.58,15.54-18.08,28.21-18.08a41.34,41.34,0,0,1,17.21,3.94,23.72,23.72,0,0,1,13.39,14.38,115.3,115.3,0,0,1-27.5,3.33Z"/></g></g><g id="logo"><g id="Grupo_117-2" data-name="Grupo 117-2"><path id="Trazado_38" data-name="Trazado 38" class="cls-2" d="M734.6,623.07s-73.06.32-105.84.32c1.21-4.24,2.15-7.64,3.16-11,2.38-7.84,5.34-16.25,5.34-16.25s7.74.36,16.3.21c19.71-.31,39.45,1.34,59.11-1,9.52-1.16,15.06-6.7,16.9-15.74a178.43,178.43,0,0,0,2.93-21.1,547.74,547.74,0,0,0-19.45-197.29c-6.24-21.62-19.61-33.65-41.83-35.73-38.34-3.55-76.69-5.62-115.22-2.14a364.55,364.55,0,0,0-115.76,29.52C398,371.49,354.85,388.21,311.47,404.2q-46.41,17.1-92.63,34.71c-15.46,5.88-20.3,13.94-19.56,30.68.36,8.06.7,16.14.7,24.22,0,20-.93,39.93.4,59.88,1.4,20.94,11.76,32.62,32.14,36.82,4.58.94,8,0,8.84-5.08.76-4.66,1.76-8.7,2.6-13.65.43-2.59.58-5.74,5-5.52,4.14.2,3.3,3.25,4,5.51,5.3,18.17,1,34.05-11,48.42-2.2,2.64-4.13,4-7.5,3.93-10-.14-20,0-29.95,0-1.42,0-3.23,0-3.33,1.84-.13,2,1.76,1.83,3.11,1.87,2.61.07,5.24.11,7.85.11,171,0,522.47-.3,522.47-.3ZM238,445.7c2.94.93,2,3.89,2.37,5.83,0,7.22-11.2,14.82-18.34,12.81-1.57-.42-1.5-1.48-1.73-2.59C218.76,454.33,230.69,443.41,238,445.7Zm2.41,23.88c-.27,5.45-.05,10.93-.07,16.4,0,5.95,0,11.89,0,17.82,0,1.14-.06,3.69-.06,3.69l-2.59.25c-9.78.9-17.74-5.49-18.52-15.27-.19-2.37-.12-4.75-.13-7.14-.13-13.46,2.61-16.67,15.92-19.84,2-.47,5.44-.82,5.44-.82s.15,2.65,0,4.92Zm472.84,71c3.88-.06,8.08.08,10,4a17.6,17.6,0,0,1,.08,14.54c-1.09,2.37-6.59,1.24-10.26,1.66-4.17.15-9.1.33-11-1.62-3.78-3.77-4.06-8.52-2.91-13.24,1-4.2,5-4.64,8.5-5.08a44.82,44.82,0,0,1,5.67-.24ZM545.33,559.36c-3.79-.1-9.47.2-10.29-1.44-1.9-3.78.81-9.2,2.75-13.54a4.5,4.5,0,0,1,4-2.48c7.1-1,17.67-2.29,23.82-.22,1.9.64,4.61,13.34,3.56,16.71-.47,1.53-2.52,1.1-3.94,1.12-4.49,0-17.78-.09-19.9-.15Zm-61-179.76c0-11.68,5.81-18.63,16-20.05,4.8-.68,7.12-.08,7.07,5.92-.33,33-.16,66-.16,99h0c0,32.77-.13,65.54.13,98.31,0,5.25-1.35,6.92-6.65,7-17.26.38-16.22,4-16.29-15q-.27-87.63-.11-175.25ZM312.2,425.05c11.52-5.39,12.29-5.19,12.29,6.75,0,42.06-.29,84.12-.3,126.18,0,7.72-.83,14.66-8.78,18.58a6.79,6.79,0,0,1-5.65.61c-2.07-.69-2.36-2.06-2.29-4.58,0-1.18,0-2.38,0-3.56q0-64.87-.09-129.75c0-3.12,0-8,0-10.41a2.39,2.39,0,0,1,1.37-2.16ZM286,438.52c-.09-6,7.83-7.54,7.83-7.54l7.84-1.65s0,96,0,143.92a2.21,2.21,0,0,1-1.23,2c-9.71,4.78-14.38,2-14.42-8.94-.12-41.14.65-86.65,0-127.79Zm-36.59,2.79c6.62-3.94,14.16-5.52,21.47-7.25.84-.2,2.8-.56,2.8-.56s1,3.26,1.13,4c2.12,9,.24,9.45-1.52,10.72-7.29,5.29-15.89,7-24.46,7.92-1,.11-2.71.12-2.71.12s0-4.22.07-6.41c0-3.67.12-6.7,3.22-8.52ZM275.66,478c-.2,5.54.2,12.16-.68,18.79-.73,5.49-3.61,8.3-8.82,9.6-16.61,4.18-20.69,1.27-22.46-16.88-2-20.95,3.86-28.45,26.7-33.1,2-.41,5.3-1.2,5.3-1.2s0,16.5,0,22.79Zm83.58,142.52c-11.86-.18-23.73-.07-35.59-.07s-23.75-.1-35.61,0c-2.31,0-5.09,0-5.09,0s.63-3.23,1.07-5.18c1.69-7.48,3.05-17.91,3.05-17.91s8.39,0,18.95,0c16.14,0,32.28.14,48.41,0,2,0,6.27,0,6.27,0s.41,3.68.81,5.76c.79,4.2,1.91,8.38,2.95,12.41.55,2.12,1.67,5,1.67,5s-4.46,0-6.89,0Zm19.47-189.48c-.18,8.31-.06,16.65-.06,25h-.14c0,7.61.16,15.22,0,22.82-.21,8.41-3.13,12.3-11,14.4-9.92,2.64-20.26,2.27-30.32,4-2.69.45-2.6-1.4-2.6-3,0-16.41-.15-32.82.21-49.23.12-5.38,4.48-8.33,9.16-9.77,10-3.07,20.08-5.65,30.1-8.51,4.12-1.17,4.78.85,4.7,4.39Zm-9.79-8.41a157.94,157.94,0,0,1-29.38,7.81c-7.06,1-3.45-6.46-5-8.62-.79-8.38,3.55-12.51,9.27-14.7,9.68-3.71,19.68-6.57,29.54-9.82,2-.67,3.17-.82,4.28,1.74,4.25,9.86,1,20.18-8.71,23.59Zm61.46,181.85c-.84,1.84-1.67,4.66-3.45,5-1.42.29-3.1-2.32-4.23-4.22-1.41-2.38-3-4.59-4.54-6.87a.54.54,0,0,0-.74-.14.55.55,0,0,0-.22.57c1.27,5.49,2.43,11,3.84,16.48.45,1.74,1.46,5.2,1.46,5.2s-3.07.08-5.21,0c-5.68-.24-11.41-.25-17.09,0-4.22.19-4.86-1.58-3.76-5.1.49-1.57.54-3.28.94-4.89,1.66-6.58,3.35-13.75,3.35-13.75a99.16,99.16,0,0,0,12.9-.3c4-.39,3.73-2.39,3.93-5.08,1.15-16.32,2.42-32.61,3.68-48.91a35.29,35.29,0,0,1,.91-4.2c8.38,7.72,11.75,17.18,13.19,27.25,1.92,13.33.76,26.5-5,39Zm4.56-120q-22.2,2.84-44.36,5.89c-3.7.5-5-.78-5-4.59.19-18.51.19-37,.16-55.52,0-4.59,2.84-7.13,6.48-8.25,14.69-4.51,29.47-8.69,44.24-12.88,3.7-1.06,3.64,1.57,3.64,4.09,0,11.14,0,22.3,0,33.45,0,10.45-.23,20.89.11,31.33.14,4.21-1.27,6-5.27,6.48Zm-6.37-79.63c-12.19,3.75-24.6,6.73-36.79,10.47-4.27,1.3-5.44,0-6.12-3.88-2.43-13.8,2.09-21.77,15.48-24.92a190.12,190.12,0,0,0,30.95-10.3c6.6-2.82,7.93-.18,8.08,5.36.07,2.14,0,4.27,0,6.41.43,11.38-.77,13.51-11.62,16.86Zm27.66,154.2c.11-47,.34-94.08.4-141.12,0-10-.79-20-.73-29.91s4.58-15.44,12.62-17.32c5-1.15,7.07-.48,7,5.55-.31,31.13-.13,62.26-.13,93.38h0c0,30.89-.16,61.79.13,92.67.06,6.15-1.38,8.45-7.89,8.06-12.82-.76-11.46,2.08-11.43-11.31Zm136.53,61.06s-12.9.31-18.33.32c-16.39.06-32.76,0-49.14,0-19.94,0-39.88-.23-59.81.14-2.78,0-7,0-7,0s1.09-4.09,1.82-6.86c2.37-9.06,3.91-17.12,3.91-17.12s9.71,0,17.89,0c31.57,0,63.14.16,94.71-.13,2.91,0,8.14,0,8.14,0s1.2,4.45,1.71,7.34c.94,5.48,6.06,16.29,6.06,16.29Zm28.17-91.67c-47-1.62-86.31-42-84.57-88.75C535,393.34,575.21,352,624.19,352.2c50.79.23,88.94,42.64,88.14,89.71s-41.47,88.32-91.4,86.57Z"/><path id="Trazado_39-2" data-name="Trazado 39-2" class="cls-3" d="M835.09,548.78c-14.2,35.08-32.93,67.69-53.22,99.5-2.66,4.17-5.77,5.78-10.85,6.24-27.3,2.45-54.63.92-81.93,1.07-6.4,0-8.58,1.78-7.81,8a96.38,96.38,0,0,1,.06,10.75c-8.73-5.7-16.19-11.55-25.29-14.46-37.19-11.91-70.67-7.09-98.59,22.08-3,3.13-4.44,2.11-6.65-.47-19.65-23-45-30.24-74.21-26.64-13.81,1.68-13.93,1.57-19.46-12.19v0h0c-1.36-1.24-2.54-2.71.2-3.47a22.43,22.43,0,0,1,5.67-.21c88.87,0,283-.08,283-.08l-.06-27-101.2,0,0-4.23,28.64-.05,34.81,0c3.89-.78,7.86-1.28,11.66-2.39,16.8-4.91,21-18.87,22.59-33.64A536.68,536.68,0,0,0,743.94,469a570.2,570.2,0,0,0-20.23-111.07c-7.6-26.63-25.24-41.13-52.5-43.68-33.35-3.11-66.73-5.18-100.31-3.46-53.59,2.74-104.21,16.26-152.48,39.37-5.68,2.71-11.6,4.89-18.41,7.73,2.74-10.2,7.66-18.31,12.36-26.29,19.06-32.37,42-61.46,72.89-83.57a213.9,213.9,0,0,1,101-38.9c50.28-6,98.26,1.18,142.49,26.1C783.41,266,821,312,842.18,370.86,863.79,430.89,858.73,490.29,835.09,548.78Z"/><path id="Trazado_40-2" data-name="Trazado 40-2" class="cls-3" d="M540.24,711.19c-11.52-25.44-38-37.91-64.7-30.55A52.86,52.86,0,0,0,451,695.91c-1.67-3.72-1.25-6.83-1-9.76.41-4.47-1.26-5.86-5.63-5.64a113.87,113.87,0,0,1-17.81,0c-6.75-.7-8.23,1.88-8.2,8.27.24,50.4.08,100.79.17,151.18,0,7.33,0,23.07,0,23.07H450v-74.2c2.81,2.05,4.44,3,5.84,4.25a53.24,53.24,0,0,0,69.69.12C546.57,774.67,552.93,739.2,540.24,711.19Zm-25.85,31c0,18.21-10.43,32.67-25.49,35.26-18.82,3.26-33.64-6.58-38.06-25.24-4-16.73,2.2-33.82,14.87-41.24a32,32,0,0,1,44,10.65h0a32.15,32.15,0,0,1,4.68,16.3C514.43,739.39,514.39,740.8,514.39,742.23Z"/><path id="Trazado_41-2" data-name="Trazado 41-2" class="cls-3" d="M916.6,699c0-5.86,2.6-13.38-1.14-17.18s-11.29-1.07-17.15-1.17c-12.73-.2-12.72,0-13.23,13a8.5,8.5,0,0,1-.87,2.17,42.37,42.37,0,0,1-3.54-2.7c-20.16-19.39-53.55-19.51-73.37.16-20.61,20.46-22.87,45.35-15.77,71.87,6.84,25.53,28.46,41.32,54.81,40.84,15.07-.25,27.41-6.52,37.94-18,2.1,5.75-1.71,12.15,2.3,15.12s10.14.66,15.33.93c2.59.14,5.25-.2,7.84.06,5.59.57,7.07-1.8,7-7.29C916.53,764.13,916.73,731.57,916.6,699Zm-51.41,76.7c-12.68,5.5-24.55,3.2-34.81-6.42-10-9.39-13.39-29.2-7.32-43.86a31.9,31.9,0,0,1,30.58-19.16c18.61.61,31.5,15.69,31.47,39.34-.68,12-6,24.06-19.92,30.1Z"/><path id="Trazado_42" data-name="Trazado 42" class="cls-3" d="M652.75,685.37c-23.55-11.88-55.37-7.81-73.2,9.36-18.31,17.64-24,51.37-12.92,76.17,11,24.5,35.48,38.21,64.09,34.79,22-2.62,38.59-13.5,47.89-34.32,1.87-4.2,1.36-6.15-3.73-6-7.12.21-14.27.31-21.39,0a10.79,10.79,0,0,0-10.11,4.85c-7.33,9.75-17.61,11.61-28.73,8.77s-18.21-10.21-20.83-21.87c-1.12-4.94.41-5.49,4.66-5.42,13.08.21,26.16.08,39.24.07,13.31,0,26.63-.07,39.93,0,3.54,0,5.52-.56,6.06-4.84C686.89,721.65,674.26,696.22,652.75,685.37Zm-7.06,45.13c-7.81-.37-15.66-.1-23.48-.1v0c-7.59,0-15.22-.37-22.77.12-6.13.4-6.37-3-4.86-6.87a29.28,29.28,0,0,1,13.57-15.82c16-8.62,36.54-.86,42.19,15.94,1.57,4.66,1.2,7-4.65,6.78Z"/><path id="Trazado_43-2" data-name="Trazado 43-2" class="cls-3" d="M376.28,798.1c-22,13.83-58.1,9.5-75.7-9.48A40.38,40.38,0,0,1,291,769.1c-.84-3.9.69-4.6,3.93-4.51,4,.08,8.08,0,12.12,0h0a75.75,75.75,0,0,0,7.83-.06c4.55-.46,6.94,1,9.06,5.55,5.14,11.08,23.37,15.07,33.5,8,7.59-5.28,7.44-13.76-.66-18.3-7.73-4.32-16.52-5.65-25-7.88a97.93,97.93,0,0,1-20-7.09c-21.77-11.14-24.91-38.43-6.41-54.54,19.34-16.86,66-17.39,80.83,9.94a21.38,21.38,0,0,1,2.07,3.63c5.14,17.11,6,16.13-11,15.67a68.35,68.35,0,0,0-7.84,0c-4.75.43-7.33-.8-9.39-5.92-4.35-10.81-24.47-14-32.81-5.84-4.82,4.69-4,11.86,1.8,15.83,6.84,4.69,14.91,5.89,22.65,8a146.72,146.72,0,0,1,22.11,7.66C398.54,750.6,399.38,783.59,376.28,798.1Z"/><path id="Trazado_44-2" data-name="Trazado 44-2" class="cls-3" d="M978.07,698.63c8.42-10.65,17.4-16.68,28.69-19.06,8.56-1.8,9.26-1.36,9.23,7.45,0,6.65-.17,13.31,0,20,.12,3.68-1.09,5.09-4.86,4.88-27.38-1.5-33.77,12.17-33.11,35.27.48,16.85-.09,33.73.16,50.59.07,4.63-1.35,6.35-6,6.21-6.65-.2-13.31-.1-20,.16-4.16.16-5.82-1.11-5.81-5.62q.25-56.3,0-112.59c0-4.68,1.85-5.57,5.92-5.4,6.4.28,12.84.37,19.22,0,4.9-.27,7,1.24,6.47,6.33C977.79,690,978.07,693.25,978.07,698.63Z"/><path id="Trazado_45-2" data-name="Trazado 45-2" class="cls-3" d="M737.18,697c3.44-.83,4.34-3.16,5.91-4.77a45.92,45.92,0,0,1,26.82-13.29c3.92-.59,5.6.7,5.48,4.91-.23,7.83-.16,15.68.05,23.51.09,3.38-1,4.89-4.44,4.47-.23,0-.47,0-.71,0-26.92-1.13-32.85,11.32-33.07,34.93-.16,16.86-.24,33.72.1,50.57.11,5.48-1.78,7.07-7,6.76-6.16-.38-12.35-.25-18.52-.09-4,.1-5.3-1.55-5.29-5.5q.13-56.28,0-112.56c0-4.62,1.91-5.59,6-5.42a173.16,173.16,0,0,0,18.51,0c5.13-.34,6.81,1.56,6.25,6.5A92.85,92.85,0,0,0,737.18,697Z"/><path id="Trazado_46" data-name="Trazado 46" class="cls-3" d="M664.28,821.71c-2.45,6.25-6.27,10.37-9.34,14.86-6.55,9.54-12.76,19.44-20.31,28.14-10.13,11.71-25.7,10.61-34.72-1.87-10.79-14.91-21.15-30.13-31.69-45.24-2.45-3.83-4.07-5.45-7.06-9.68,3.89,3.14,6.28,4.52,9.05,6.48a85.62,85.62,0,0,0,43,15.91,105.19,105.19,0,0,0,25.57-.64C647.23,828.33,655.16,825.27,664.28,821.71Z"/></g><g id="Grupo_118-2" data-name="Grupo 118-2"><path id="Trazado_47" data-name="Trazado 47" class="cls-4" d="M109.58,712.82c-1.31,12.91-6,23.44-6.08,35.53-1.45-1.22-3.12-2.29-4.5-3.39a85,85,0,0,1-25-33.17c-1.4-3.27-2.5-6.78-7.51-4.57-2.55,1.13-3.34-.64-2.81-3,3-13.39,6-26.78,9.08-40.15.67-2.91,2.24-2.55,4-.91l30.37,28c1.5,1.38,2.11,3.07-.46,3.57-8.49,1.67-4.41,6.35-2.51,10.31a59.73,59.73,0,0,0,4.58,6.75Z"/><path id="Trazado_48-2" data-name="Trazado 48-2" class="cls-2" d="M249.42,691.49c-16.56-21.09-39.23-29.43-65.15-29.1-26.11.35-48.35,9.25-64.12,30.19a.41.41,0,0,0-.1.13.78.78,0,0,0-.16.2c-.9,1.19-1.77,2.45-2.64,3.75-.1.16-.22.33-.31.5s-.3.5-.48.76a82.09,82.09,0,0,0-6.87,14.9,113.09,113.09,0,0,0-6.09,35.54c0,1.72,0,3.49,0,5.29,1.5,24.15,9.51,45.56,28.94,61,25.17,20,53.69,22.75,83.44,13.14,20.69-6.68,35.11-21,43.61-41.16,1.59-3.75,1.78-6.08-3.64-5.89-9,.33-18.07.14-27.1,0A5.78,5.78,0,0,0,223,784c-7.85,13.1-19.83,19.19-34.82,19.95-28.1,1.43-47.08-19-47.91-38.82,4.65.89,9.21,1.9,13.8,2.58,35.73,5.24,71,2.2,106.09-5.5,3.47-.78,5.21-2.42,5.45-5.43C267.46,733.21,264.53,710.76,249.42,691.49Zm-24.16,43a129.23,129.23,0,0,1-40.59,5.71c-12.89-.06-25.39-2.57-38-5.12-6.58-1.33-8-4.21-6.18-10.05,9.85-32.11,40.58-40.5,66.51-28.53,13.16,6.08,20.74,16.76,22.64,31.36.5,3.91-.88,5.51-4.42,6.63Z"/></g></g></g></g></svg>